<svg width="368" height="32" viewBox="0 0 368 32" fill="none" xmlns="http://www.w3.org/2000/svg">
<path d="M1.00024 10.1562V10.4074L1.01117 14.0662V14.4812C0.869186 20.9467 2.28899 22.5194 2.28899 22.5194C6.23166 29.127 14.2371 26.8444 14.2371 26.8444C14.2371 26.8444 21.4563 24.66 22.1553 18.4348C22.3737 16.458 21.9587 15.1037 21.2706 14.1863C19.8181 12.2095 17.175 12.2095 17.175 12.2095H6.30811C6.28627 12.3624 6.27535 12.5153 6.26443 12.6573C6.26443 12.6573 6.26443 12.6646 6.26443 12.6791C5.9477 18.5221 12.5771 17.7795 14.532 17.43H14.5539C14.7614 17.3863 14.9143 17.3535 14.9907 17.3317" stroke="white" stroke-width="1.09215" stroke-miterlimit="10"/>
<path d="M15.0676 17.3213C15.0676 17.3213 15.013 17.3322 14.9912 17.3322C14.8383 17.354 14.6963 17.3868 14.5543 17.4305H14.5325C10.9393 18.3916 10.9393 22.935 10.9393 22.935" stroke="white" stroke-width="1.09215" stroke-miterlimit="10"/>
<path d="M6.16613 10.43C6.16613 9.0005 5.00971 7.84163 3.58319 7.84163C2.15667 7.84163 1.00024 9.0005 1.00024 10.43V13.8266C1.00024 15.2562 2.15667 16.415 3.58319 16.415C5.00971 16.415 6.16613 15.2562 6.16613 13.8266V10.43Z" stroke="white" stroke-width="1.09215" stroke-miterlimit="10"/>
<path d="M11.3337 7.16509V11.9924C11.3337 12.0689 11.3337 12.1453 11.3228 12.2108H6.30983C6.28798 12.3637 6.27706 12.5166 6.26614 12.6586C6.20061 12.4511 6.16785 12.2218 6.16785 11.9924V7.24154C6.16785 5.81082 7.32553 4.66405 8.75625 4.66405C9.46615 4.66405 10.1105 4.94802 10.5801 5.41764C11.0279 5.8545 11.3119 6.48795 11.3337 7.16509Z" stroke="white" stroke-width="1.09215" stroke-miterlimit="10"/>
<path d="M16.4881 12.2105C16.4991 12.145 16.4991 12.0576 16.4991 11.9812V6.95727C16.4991 6.20369 16.2042 5.53747 15.7455 5.046C15.2759 4.56545 14.6315 4.25965 13.9216 4.25965C12.4909 4.25965 11.3332 5.46102 11.3332 6.95727V11.9812C11.3332 12.0576 11.3332 12.145 11.3441 12.2105" stroke="white" stroke-width="1.09215" stroke-miterlimit="10"/>
<path d="M21.6731 14.8424V7.10992C21.6731 6.41095 21.3782 5.7775 20.9195 5.31879C20.4499 4.86009 19.8055 4.58705 19.0847 4.58705C17.654 4.58705 16.4963 5.72289 16.4963 7.12085V12.2758" stroke="white" stroke-width="1.09215" stroke-miterlimit="10"/>
<path d="M110.829 15.5194H110.774C110.764 18.0532 110.774 20.6744 110.851 22.3126C111.037 26.6813 113.155 28.4069 113.155 28.4069C118.54 33.3762 124.066 30.3181 126.436 28.6253C127.069 28.1557 127.659 27.6205 128.194 27.0417L135.424 19.3092C133.043 15.4102 129.975 18.0642 129.975 18.0642L128.205 19.3857" stroke="white" stroke-width="1.09215" stroke-miterlimit="10"/>
<path d="M119.63 15.5194H119.401" stroke="white" stroke-width="1.09215" stroke-miterlimit="10"/>
<path d="M119.917 21.3412C119.917 21.3412 121.041 19.8996 123.914 19.4627" stroke="white" stroke-width="1.09215" stroke-miterlimit="10"/>
<path d="M110.775 15.5205C110.775 13.1287 110.808 10.8133 110.83 9.48092C110.841 8.7601 110.851 8.32323 110.851 8.32323" stroke="white" stroke-width="1.09215" stroke-miterlimit="10"/>
<path d="M115.111 15.5206V7.72265C115.111 7.13288 114.871 6.59773 114.489 6.20455C114.107 5.8223 113.56 5.58202 112.971 5.58202C111.791 5.58202 110.83 6.54312 110.83 7.72265V15.5206" stroke="white" stroke-width="1.09215" stroke-miterlimit="10"/>
<path d="M115.109 15.5202V3.82325C115.109 2.64372 116.071 1.68262 117.261 1.68262C117.851 1.68262 118.386 1.9229 118.779 2.31607C119.172 2.70925 119.402 3.23348 119.402 3.82325V15.5202" stroke="white" stroke-width="1.09215" stroke-miterlimit="10"/>
<path d="M123.914 15.5202V3.82325C123.914 3.23348 123.674 2.69833 123.281 2.31607C122.899 1.9229 122.363 1.68262 121.774 1.68262C120.594 1.68262 119.633 2.64372 119.633 3.82325V15.5202" stroke="white" stroke-width="1.09215" stroke-miterlimit="10"/>
<path d="M123.915 15.5204V6.35725C123.915 4.97022 124.876 3.85622 126.066 3.85622C126.656 3.85622 127.191 4.14018 127.584 4.58796C127.966 5.04667 128.207 5.65827 128.207 6.35725V19.3866L128.021 19.5286C126.372 19.2665 125.018 19.2884 123.915 19.4631" stroke="white" stroke-width="1.09215" stroke-miterlimit="10"/>
<path d="M120.539 15.5194H118.617V16.699H120.539V15.5194Z" fill="white"/>
<path d="M234.405 15.9892V19.4295H234.416C234.405 19.4732 234.416 19.506 234.416 19.5387V19.779C234.296 25.4582 235.486 26.8343 235.486 26.8343C238.774 32.6446 245.458 30.635 245.458 30.635C245.458 30.635 251.475 28.7128 252.065 23.2521C252.12 22.6951 252.12 22.1818 252.076 21.734C252 20.7838 251.716 20.063 251.322 19.5169C250.11 17.7804 247.904 17.7804 247.904 17.7804H238.839C238.817 17.9224 238.806 18.0534 238.795 18.1736C238.795 18.1736 238.795 18.1808 238.795 18.1954C238.533 23.3285 244.071 22.6732 245.698 22.3674H245.72C245.894 22.3347 246.015 22.3019 246.08 22.28" stroke="white" stroke-width="1.09215" stroke-miterlimit="10"/>
<path d="M246.145 22.2802C246.145 22.2802 246.102 22.2802 246.08 22.2802C245.949 22.302 245.829 22.3239 245.719 22.3676H245.698C242.694 23.2085 242.694 27.2058 242.694 27.2058" stroke="white" stroke-width="1.09215" stroke-miterlimit="10"/>
<path d="M236.567 13.9578H236.557C235.368 13.9578 234.405 14.921 234.405 16.1093V19.3312C234.405 20.5194 235.368 21.4827 236.557 21.4827H236.567C237.756 21.4827 238.719 20.5194 238.719 19.3312V16.1093C238.719 14.921 237.756 13.9578 236.567 13.9578Z" stroke="white" stroke-width="1.09215" stroke-miterlimit="10"/>
<path d="M243.032 13.3685V17.606C243.032 17.6716 243.032 17.7371 243.021 17.7917H238.838C238.816 17.9337 238.806 18.0647 238.795 18.1849C238.74 18.0101 238.718 17.8026 238.718 17.606V13.434C238.718 12.178 239.679 11.1623 240.881 11.1623C241.47 11.1623 242.006 11.4135 242.399 11.8285H242.41C242.77 12.2217 243.01 12.7678 243.032 13.3685Z" stroke="white" stroke-width="1.09215" stroke-miterlimit="10"/>
<path d="M242.412 11.8386L241.199 3.8659C240.981 2.42426 241.964 1.09183 243.394 0.873403C243.536 0.851559 243.668 0.840637 243.81 0.840637C245.087 0.840637 246.19 1.77989 246.387 3.06863L247.796 12.2755C247.872 12.7451 247.807 13.2038 247.654 13.6188" stroke="white" stroke-width="1.09215" stroke-miterlimit="10"/>
<path d="M247.873 13.619L249.173 3.12342C249.347 1.68178 250.658 0.666073 252.1 0.840818C253.432 1.00464 254.404 2.14048 254.404 3.44014C254.404 3.54936 254.393 3.65857 254.382 3.76779L253.17 13.619L252.253 21.1003C252.22 21.3296 252.165 21.5371 252.078 21.7446C252.001 20.7945 251.717 20.0736 251.324 19.5276C250.112 17.791 247.906 17.791 247.906 17.791H247.36" stroke="white" stroke-width="1.09215" stroke-miterlimit="10"/>
<path d="M247.871 13.6191H247.653" stroke="white" stroke-width="1.09215" stroke-miterlimit="10"/>
<path d="M248.461 9.84081H247.293V15.1814H248.461V9.84081Z" fill="white"/>
<path d="M39.1664 21.5137V8.23568H44.9139C46.1026 8.23568 47.1269 8.43169 47.9868 8.82371C48.8467 9.20308 49.5106 9.75316 49.9785 10.474C50.4464 11.1948 50.6804 12.0547 50.6804 13.0537C50.6804 14.0401 50.4464 14.8936 49.9785 15.6144C49.5106 16.3226 48.8467 16.8664 47.9868 17.2457C47.1269 17.6251 46.1026 17.8148 44.9139 17.8148H40.8736L42.2394 16.468V21.5137H39.1664ZM47.6075 21.5137L44.288 16.6957H47.5695L50.927 21.5137H47.6075ZM42.2394 16.8095L40.8736 15.3679H44.7432C45.6916 15.3679 46.3998 15.1655 46.8677 14.7609C47.3356 14.3436 47.5695 13.7745 47.5695 13.0537C47.5695 12.3202 47.3356 11.7512 46.8677 11.3465C46.3998 10.9419 45.6916 10.7395 44.7432 10.7395H40.8736L42.2394 9.27895V16.8095ZM59.5643 21.7413C58.5147 21.7413 57.541 21.5706 56.6432 21.2291C55.758 20.8877 54.9866 20.4072 54.329 19.7875C53.6841 19.1679 53.1782 18.4408 52.8115 17.6061C52.4574 16.7715 52.2804 15.861 52.2804 14.8747C52.2804 13.8883 52.4574 12.9778 52.8115 12.1432C53.1782 11.3086 53.6904 10.5815 54.348 9.96182C55.0055 9.34218 55.7769 8.86164 56.6621 8.52021C57.5473 8.17877 58.5084 8.00806 59.5453 8.00806C60.5949 8.00806 61.556 8.17877 62.4286 8.52021C63.3138 8.86164 64.0788 9.34218 64.7238 9.96182C65.3813 10.5815 65.8935 11.3086 66.2602 12.1432C66.6269 12.9652 66.8103 13.8757 66.8103 14.8747C66.8103 15.861 66.6269 16.7779 66.2602 17.6251C65.8935 18.4597 65.3813 19.1869 64.7238 19.8065C64.0788 20.4135 63.3138 20.8877 62.4286 21.2291C61.556 21.5706 60.6013 21.7413 59.5643 21.7413ZM59.5453 19.1236C60.1397 19.1236 60.6835 19.0225 61.1766 18.8201C61.6825 18.6178 62.1251 18.327 62.5044 17.9476C62.8838 17.5682 63.1747 17.1193 63.377 16.6008C63.592 16.0823 63.6995 15.507 63.6995 14.8747C63.6995 14.2424 63.592 13.667 63.377 13.1485C63.1747 12.6301 62.8838 12.1811 62.5044 11.8018C62.1377 11.4224 61.7014 11.1315 61.1956 10.9292C60.6898 10.7269 60.1397 10.6257 59.5453 10.6257C58.951 10.6257 58.4009 10.7269 57.8951 10.9292C57.4019 11.1315 56.9656 11.4224 56.5863 11.8018C56.2069 12.1811 55.9097 12.6301 55.6947 13.1485C55.4924 13.667 55.3912 14.2424 55.3912 14.8747C55.3912 15.4943 55.4924 16.0697 55.6947 16.6008C55.9097 17.1193 56.2006 17.5682 56.5673 17.9476C56.9467 18.327 57.3893 18.6178 57.8951 18.8201C58.4009 19.0225 58.951 19.1236 59.5453 19.1236ZM75.4742 21.7413C74.4499 21.7413 73.4951 21.5769 72.6099 21.2481C71.7374 20.9067 70.9786 20.4261 70.3337 19.8065C69.6888 19.1869 69.183 18.4597 68.8162 17.6251C68.4622 16.7905 68.2851 15.8737 68.2851 14.8747C68.2851 13.8757 68.4622 12.9589 68.8162 12.1242C69.183 11.2896 69.6888 10.5625 70.3337 9.94285C70.9913 9.32321 71.7564 8.849 72.6289 8.52021C73.5015 8.17877 74.4562 8.00806 75.4932 8.00806C76.6439 8.00806 77.6809 8.21039 78.604 8.61505C79.5398 9.00707 80.3238 9.58877 80.9561 10.3602L78.9834 12.1811C78.5281 11.6627 78.0223 11.277 77.4659 11.0241C76.9095 10.7585 76.3025 10.6257 75.6449 10.6257C75.0253 10.6257 74.4562 10.7269 73.9377 10.9292C73.4193 11.1315 72.9703 11.4224 72.591 11.8018C72.2116 12.1811 71.9144 12.6301 71.6995 13.1485C71.4971 13.667 71.396 14.2424 71.396 14.8747C71.396 15.507 71.4971 16.0823 71.6995 16.6008C71.9144 17.1193 72.2116 17.5682 72.591 17.9476C72.9703 18.327 73.4193 18.6178 73.9377 18.8201C74.4562 19.0225 75.0253 19.1236 75.6449 19.1236C76.3025 19.1236 76.9095 18.9972 77.4659 18.7443C78.0223 18.4787 78.5281 18.0804 78.9834 17.5492L80.9561 19.3702C80.3238 20.1416 79.5398 20.7296 78.604 21.1343C77.6809 21.539 76.6376 21.7413 75.4742 21.7413ZM85.7817 18.4787L85.611 14.9316L91.9654 8.23568H95.3798L89.6513 14.4005L87.9441 16.2214L85.7817 18.4787ZM83.0312 21.5137V8.23568H86.0852V21.5137H83.0312ZM92.1172 21.5137L87.394 15.7283L89.4047 13.5469L95.7022 21.5137H92.1172Z" fill="white"/>
<path d="M150.262 22.9943V9.71634H156.009C157.198 9.71634 158.222 9.91235 159.082 10.3044C159.942 10.6837 160.606 11.2338 161.074 11.9546C161.542 12.6754 161.776 13.5353 161.776 14.5344C161.776 15.5207 161.542 16.3743 161.074 17.0951C160.606 17.8159 159.942 18.3723 159.082 18.7643C158.222 19.1437 157.198 19.3334 156.009 19.3334H151.969L153.335 17.9487V22.9943H150.262ZM153.335 18.2901L151.969 16.8295H155.838C156.787 16.8295 157.495 16.6272 157.963 16.2226C158.431 15.8179 158.665 15.2552 158.665 14.5344C158.665 13.8009 158.431 13.2318 157.963 12.8272C157.495 12.4225 156.787 12.2202 155.838 12.2202H151.969L153.335 10.7596V18.2901ZM161.557 22.9943L167.476 9.71634H170.511L176.448 22.9943H173.223L168.367 11.2718H169.581L164.706 22.9943H161.557ZM164.517 20.149L165.332 17.8159H172.161L172.996 20.149H164.517ZM177.825 22.9943V9.71634H183.573C184.762 9.71634 185.786 9.91235 186.646 10.3044C187.506 10.6837 188.17 11.2338 188.637 11.9546C189.105 12.6754 189.339 13.5353 189.339 14.5344C189.339 15.5207 189.105 16.3743 188.637 17.0951C188.17 17.8159 187.506 18.3723 186.646 18.7643C185.786 19.1437 184.762 19.3334 183.573 19.3334H179.533L180.898 17.9487V22.9943H177.825ZM180.898 18.2901L179.533 16.8295H183.402C184.351 16.8295 185.059 16.6272 185.527 16.2226C185.995 15.8179 186.228 15.2552 186.228 14.5344C186.228 13.8009 185.995 13.2318 185.527 12.8272C185.059 12.4225 184.351 12.2202 183.402 12.2202H179.533L180.898 10.7596V18.2901ZM194.359 15.0655H200.752V17.4555H194.359V15.0655ZM194.587 20.5284H201.814V22.9943H191.533V9.71634H201.568V12.1823H194.587V20.5284ZM204.259 22.9943V9.71634H210.007C211.195 9.71634 212.22 9.91235 213.08 10.3044C213.939 10.6837 214.603 11.2338 215.071 11.9546C215.539 12.6754 215.773 13.5353 215.773 14.5344C215.773 15.5207 215.539 16.3743 215.071 17.0951C214.603 17.8033 213.939 18.347 213.08 18.7264C212.22 19.1058 211.195 19.2955 210.007 19.2955H205.966L207.332 17.9487V22.9943H204.259ZM212.7 22.9943L209.381 18.1763H212.662L216.02 22.9943H212.7ZM207.332 18.2901L205.966 16.8485H209.836C210.784 16.8485 211.492 16.6462 211.96 16.2415C212.428 15.8242 212.662 15.2552 212.662 14.5344C212.662 13.8009 212.428 13.2318 211.96 12.8272C211.492 12.4225 210.784 12.2202 209.836 12.2202H205.966L207.332 10.7596V18.2901Z" fill="white"/>
<path d="M274.365 24.1124C273.303 24.1124 272.285 23.9733 271.311 23.6951C270.337 23.4042 269.553 23.0312 268.959 22.5759L270.002 20.2618C270.571 20.6664 271.242 21.0015 272.013 21.2671C272.797 21.52 273.587 21.6465 274.384 21.6465C274.991 21.6465 275.478 21.5896 275.845 21.4758C276.224 21.3493 276.502 21.1786 276.679 20.9636C276.856 20.7486 276.945 20.502 276.945 20.2238C276.945 19.8698 276.806 19.5915 276.527 19.3892C276.249 19.1742 275.883 19.0035 275.427 18.8771C274.972 18.738 274.466 18.6115 273.91 18.4977C273.366 18.3712 272.816 18.2195 272.26 18.0424C271.716 17.8654 271.216 17.6378 270.761 17.3596C270.306 17.0814 269.933 16.7146 269.642 16.2594C269.364 15.8042 269.225 15.2225 269.225 14.5143C269.225 13.7556 269.427 13.0664 269.832 12.4467C270.249 11.8144 270.868 11.3149 271.69 10.9482C272.525 10.5688 273.568 10.3792 274.82 10.3792C275.655 10.3792 276.477 10.4803 277.286 10.6826C278.095 10.8723 278.81 11.1632 279.43 11.5552L278.481 13.8883C277.862 13.5343 277.242 13.275 276.622 13.1106C276.003 12.9336 275.396 12.8451 274.801 12.8451C274.207 12.8451 273.72 12.9146 273.341 13.0537C272.961 13.1928 272.689 13.3762 272.525 13.6038C272.361 13.8188 272.278 14.0717 272.278 14.3625C272.278 14.704 272.418 14.9822 272.696 15.1972C272.974 15.3995 273.341 15.5639 273.796 15.6903C274.251 15.8168 274.751 15.9433 275.294 16.0697C275.851 16.1962 276.401 16.3416 276.945 16.506C277.501 16.6704 278.007 16.8917 278.462 17.1699C278.917 17.4481 279.284 17.8148 279.562 18.2701C279.853 18.7253 279.999 19.3007 279.999 19.9962C279.999 20.7423 279.79 21.4252 279.373 22.0448C278.955 22.6645 278.329 23.164 277.495 23.5433C276.673 23.9227 275.63 24.1124 274.365 24.1124ZM288.453 24.1124C287.429 24.1124 286.474 23.948 285.589 23.6192C284.716 23.2778 283.957 22.7972 283.312 22.1776C282.667 21.558 282.162 20.8308 281.795 19.9962C281.441 19.1616 281.264 18.2448 281.264 17.2458C281.264 16.2468 281.441 15.3299 281.795 14.4953C282.162 13.6607 282.667 12.9336 283.312 12.3139C283.97 11.6943 284.735 11.2201 285.608 10.8913C286.48 10.5499 287.435 10.3792 288.472 10.3792C289.623 10.3792 290.66 10.5815 291.583 10.9861C292.518 11.3782 293.303 11.9599 293.935 12.7313L291.962 14.5522C291.507 14.0338 291.001 13.6481 290.445 13.3952C289.888 13.1296 289.281 12.9968 288.624 12.9968C288.004 12.9968 287.435 13.098 286.916 13.3003C286.398 13.5026 285.949 13.7935 285.57 14.1729C285.19 14.5522 284.893 15.0012 284.678 15.5196C284.476 16.0381 284.375 16.6135 284.375 17.2458C284.375 17.8781 284.476 18.4534 284.678 18.9719C284.893 19.4904 285.19 19.9393 285.57 20.3187C285.949 20.698 286.398 20.9889 286.916 21.1912C287.435 21.3936 288.004 21.4947 288.624 21.4947C289.281 21.4947 289.888 21.3683 290.445 21.1154C291.001 20.8498 291.507 20.4515 291.962 19.9203L293.935 21.7413C293.303 22.5127 292.518 23.1007 291.583 23.5054C290.66 23.9101 289.616 24.1124 288.453 24.1124ZM296.01 23.8848V10.6068H299.083V23.8848H296.01ZM306.597 24.1124C305.535 24.1124 304.517 23.9733 303.543 23.6951C302.569 23.4042 301.785 23.0312 301.191 22.5759L302.234 20.2618C302.803 20.6664 303.473 21.0015 304.245 21.2671C305.029 21.52 305.819 21.6465 306.616 21.6465C307.223 21.6465 307.71 21.5896 308.076 21.4758C308.456 21.3493 308.734 21.1786 308.911 20.9636C309.088 20.7486 309.176 20.502 309.176 20.2238C309.176 19.8698 309.037 19.5915 308.759 19.3892C308.481 19.1742 308.114 19.0035 307.659 18.8771C307.204 18.738 306.698 18.6115 306.142 18.4977C305.598 18.3712 305.048 18.2195 304.491 18.0424C303.947 17.8654 303.448 17.6378 302.993 17.3596C302.537 17.0814 302.164 16.7146 301.874 16.2594C301.595 15.8042 301.456 15.2225 301.456 14.5143C301.456 13.7556 301.659 13.0664 302.063 12.4467C302.481 11.8144 303.1 11.3149 303.922 10.9482C304.757 10.5688 305.8 10.3792 307.052 10.3792C307.887 10.3792 308.709 10.4803 309.518 10.6826C310.327 10.8723 311.042 11.1632 311.661 11.5552L310.713 13.8883C310.093 13.5343 309.474 13.275 308.854 13.1106C308.234 12.9336 307.627 12.8451 307.033 12.8451C306.439 12.8451 305.952 12.9146 305.572 13.0537C305.193 13.1928 304.921 13.3762 304.757 13.6038C304.592 13.8188 304.51 14.0717 304.51 14.3625C304.51 14.704 304.649 14.9822 304.928 15.1972C305.206 15.3995 305.572 15.5639 306.028 15.6903C306.483 15.8168 306.982 15.9433 307.526 16.0697C308.083 16.1962 308.633 16.3416 309.176 16.506C309.733 16.6704 310.239 16.8917 310.694 17.1699C311.149 17.4481 311.516 17.8148 311.794 18.2701C312.085 18.7253 312.23 19.3007 312.23 19.9962C312.23 20.7423 312.022 21.4252 311.604 22.0448C311.187 22.6645 310.561 23.164 309.727 23.5433C308.905 23.9227 307.861 24.1124 306.597 24.1124ZM318.693 24.1124C317.631 24.1124 316.613 23.9733 315.639 23.6951C314.665 23.4042 313.881 23.0312 313.287 22.5759L314.33 20.2618C314.899 20.6664 315.569 21.0015 316.341 21.2671C317.125 21.52 317.915 21.6465 318.712 21.6465C319.319 21.6465 319.806 21.5896 320.172 21.4758C320.552 21.3493 320.83 21.1786 321.007 20.9636C321.184 20.7486 321.273 20.502 321.273 20.2238C321.273 19.8698 321.134 19.5915 320.855 19.3892C320.577 19.1742 320.21 19.0035 319.755 18.8771C319.3 18.738 318.794 18.6115 318.238 18.4977C317.694 18.3712 317.144 18.2195 316.587 18.0424C316.044 17.8654 315.544 17.6378 315.089 17.3596C314.634 17.0814 314.261 16.7146 313.97 16.2594C313.692 15.8042 313.552 15.2225 313.552 14.5143C313.552 13.7556 313.755 13.0664 314.159 12.4467C314.577 11.8144 315.196 11.3149 316.018 10.9482C316.853 10.5688 317.896 10.3792 319.148 10.3792C319.983 10.3792 320.805 10.4803 321.614 10.6826C322.423 10.8723 323.138 11.1632 323.758 11.5552L322.809 13.8883C322.189 13.5343 321.57 13.275 320.95 13.1106C320.331 12.9336 319.724 12.8451 319.129 12.8451C318.535 12.8451 318.048 12.9146 317.669 13.0537C317.289 13.1928 317.017 13.3762 316.853 13.6038C316.689 13.8188 316.606 14.0717 316.606 14.3625C316.606 14.704 316.745 14.9822 317.024 15.1972C317.302 15.3995 317.669 15.5639 318.124 15.6903C318.579 15.8168 319.079 15.9433 319.622 16.0697C320.179 16.1962 320.729 16.3416 321.273 16.506C321.829 16.6704 322.335 16.8917 322.79 17.1699C323.245 17.4481 323.612 17.8148 323.89 18.2701C324.181 18.7253 324.327 19.3007 324.327 19.9962C324.327 20.7423 324.118 21.4252 323.701 22.0448C323.283 22.6645 322.657 23.164 321.823 23.5433C321.001 23.9227 319.957 24.1124 318.693 24.1124ZM332.876 24.1124C331.826 24.1124 330.852 23.9417 329.954 23.6002C329.069 23.2588 328.298 22.7783 327.64 22.1586C326.995 21.539 326.49 20.8119 326.123 19.9772C325.769 19.1426 325.592 18.2321 325.592 17.2458C325.592 16.2594 325.769 15.3489 326.123 14.5143C326.49 13.6797 327.002 12.9526 327.659 12.3329C328.317 11.7133 329.088 11.2327 329.973 10.8913C330.859 10.5499 331.82 10.3792 332.857 10.3792C333.906 10.3792 334.867 10.5499 335.74 10.8913C336.625 11.2327 337.39 11.7133 338.035 12.3329C338.693 12.9526 339.205 13.6797 339.572 14.5143C339.938 15.3363 340.122 16.2468 340.122 17.2458C340.122 18.2321 339.938 19.1489 339.572 19.9962C339.205 20.8308 338.693 21.558 338.035 22.1776C337.39 22.7846 336.625 23.2588 335.74 23.6002C334.867 23.9417 333.913 24.1124 332.876 24.1124ZM332.857 21.4947C333.451 21.4947 333.995 21.3936 334.488 21.1912C334.994 20.9889 335.436 20.698 335.816 20.3187C336.195 19.9393 336.486 19.4904 336.688 18.9719C336.903 18.4534 337.011 17.8781 337.011 17.2458C337.011 16.6135 336.903 16.0381 336.688 15.5196C336.486 15.0012 336.195 14.5522 335.816 14.1729C335.449 13.7935 335.013 13.5026 334.507 13.3003C334.001 13.098 333.451 12.9968 332.857 12.9968C332.262 12.9968 331.712 13.098 331.206 13.3003C330.713 13.5026 330.277 13.7935 329.898 14.1729C329.518 14.5522 329.221 15.0012 329.006 15.5196C328.804 16.0381 328.703 16.6135 328.703 17.2458C328.703 17.8654 328.804 18.4408 329.006 18.9719C329.221 19.4904 329.512 19.9393 329.879 20.3187C330.258 20.698 330.701 20.9889 331.206 21.1912C331.712 21.3936 332.262 21.4947 332.857 21.4947ZM342.431 23.8848V10.6068H348.178C349.367 10.6068 350.391 10.8028 351.251 11.1948C352.111 11.5742 352.775 12.1243 353.243 12.8451C353.711 13.5659 353.945 14.4258 353.945 15.4248C353.945 16.4112 353.711 17.2647 353.243 17.9855C352.775 18.6937 352.111 19.2375 351.251 19.6168C350.391 19.9962 349.367 20.1859 348.178 20.1859H344.138L345.504 18.8391V23.8848H342.431ZM350.872 23.8848L347.553 19.0668H350.834L354.192 23.8848H350.872ZM345.504 19.1806L344.138 17.739H348.008C348.956 17.739 349.664 17.5366 350.132 17.132C350.6 16.7146 350.834 16.1456 350.834 15.4248C350.834 14.6913 350.6 14.1223 350.132 13.7176C349.664 13.313 348.956 13.1106 348.008 13.1106H344.138L345.504 11.65V19.1806ZM360.742 24.1124C359.68 24.1124 358.662 23.9733 357.688 23.6951C356.715 23.4042 355.931 23.0312 355.336 22.5759L356.38 20.2618C356.949 20.6664 357.619 21.0015 358.39 21.2671C359.174 21.52 359.965 21.6465 360.761 21.6465C361.368 21.6465 361.855 21.5896 362.222 21.4758C362.601 21.3493 362.879 21.1786 363.057 20.9636C363.234 20.7486 363.322 20.502 363.322 20.2238C363.322 19.8698 363.183 19.5915 362.905 19.3892C362.627 19.1742 362.26 19.0035 361.805 18.8771C361.349 18.738 360.844 18.6115 360.287 18.4977C359.743 18.3712 359.193 18.2195 358.637 18.0424C358.093 17.8654 357.594 17.6378 357.138 17.3596C356.683 17.0814 356.31 16.7146 356.019 16.2594C355.741 15.8042 355.602 15.2225 355.602 14.5143C355.602 13.7556 355.804 13.0664 356.209 12.4467C356.626 11.8144 357.246 11.3149 358.068 10.9482C358.902 10.5688 359.946 10.3792 361.198 10.3792C362.032 10.3792 362.854 10.4803 363.664 10.6826C364.473 10.8723 365.187 11.1632 365.807 11.5552L364.859 13.8883C364.239 13.5343 363.619 13.275 363 13.1106C362.38 12.9336 361.773 12.8451 361.179 12.8451C360.584 12.8451 360.097 12.9146 359.718 13.0537C359.339 13.1928 359.067 13.3762 358.902 13.6038C358.738 13.8188 358.656 14.0717 358.656 14.3625C358.656 14.704 358.795 14.9822 359.073 15.1972C359.351 15.3995 359.718 15.5639 360.173 15.6903C360.629 15.8168 361.128 15.9433 361.672 16.0697C362.228 16.1962 362.778 16.3416 363.322 16.506C363.878 16.6704 364.384 16.8917 364.84 17.1699C365.295 17.4481 365.662 17.8148 365.94 18.2701C366.231 18.7253 366.376 19.3007 366.376 19.9962C366.376 20.7423 366.167 21.4252 365.75 22.0448C365.333 22.6645 364.707 23.164 363.872 23.5433C363.05 23.9227 362.007 24.1124 360.742 24.1124Z" fill="white"/>
</svg>
